<?xml version="1.0" encoding="UTF-8"?>
<svg width="21px" height="13px" viewBox="0 0 21 13" version="1.1" xmlns="http://www.w3.org/2000/svg" xmlns:xlink="http://www.w3.org/1999/xlink">
    <!-- Generator: Sketch 56 (81588) - https://sketch.com -->
    <title></title>
    <desc>Created with Sketch.</desc>
    <g id="Home" stroke="none" stroke-width="1" fill="none" fill-rule="evenodd" fill-opacity="0.87">
        <g id="Desktop-HD" transform="translate(-572.000000, -448.000000)" fill="#FFFFFF" fill-rule="nonzero">
            <path d="M592.71875,449.828125 C592.8125,449.953126 592.859375,450.093749 592.859375,450.25 C592.859375,450.406251 592.8125,450.53125 592.71875,450.625 L582.921875,460.46875 C582.796874,460.5625 582.656251,460.609375 582.5,460.609375 C582.343749,460.609375 582.21875,460.5625 582.125,460.46875 L572.28125,450.625 C572.1875,450.53125 572.140625,450.406251 572.140625,450.25 C572.140625,450.093749 572.1875,449.953126 572.28125,449.828125 L573.21875,448.890625 C573.3125,448.796875 573.437499,448.75 573.59375,448.75 C573.750001,448.75 573.890624,448.796875 574.015625,448.890625 L582.5,457.375 L590.984375,448.890625 C591.109376,448.796875 591.249999,448.75 591.40625,448.75 C591.562501,448.75 591.6875,448.796875 591.78125,448.890625 L592.71875,449.828125 Z" id=""></path>
        </g>
    </g>
</svg>