<?xml version="1.0" encoding="UTF-8"?>
<svg width="99px" height="26px" viewBox="0 0 99 26" version="1.1" xmlns="http://www.w3.org/2000/svg" xmlns:xlink="http://www.w3.org/1999/xlink">
    <!-- Generator: Sketch 56 (81588) - https://sketch.com -->
    <title>Group</title>
    <desc>Created with Sketch.</desc>
    <g id="Home" stroke="none" stroke-width="1" fill="none" fill-rule="evenodd">
        <g id="Desktop-HD" transform="translate(-24.000000, -21.000000)" fill="#FFFFFF">
            <g id="Group" transform="translate(24.000000, 21.000000)">
                <g id="Logo">
                    <path d="M14.9568135,14.7047554 C14.9244128,14.5422755 14.8272108,14.4609056 14.6649482,14.4609056 C14.5029449,14.4609056 14.4054836,14.5422755 14.373083,14.7047554 C14.2110796,15.2252109 13.9028844,15.8106584 13.4487565,16.4613578 C13.1892919,16.7865775 13.0270294,17.0304273 12.962228,17.1931671 C12.8326253,17.4533949 12.7675648,17.7300006 12.7675648,18.0227244 C12.7675648,18.5431799 12.9541926,18.9903245 13.3271892,19.3644181 C13.7001858,19.7385118 14.146019,19.9254286 14.6649482,19.9254286 C15.1838774,19.9254286 15.6299699,19.7385118 16.0027073,19.3644181 C16.3757038,18.9903245 16.5623317,18.5431799 16.5623317,18.0227244 C16.5623317,17.7300006 16.4972711,17.4533949 16.3676684,17.1931671 C16.3028671,17.0304273 16.1406045,16.7865775 15.8811399,16.4613578 C15.4270121,15.8106584 15.1190761,15.2252109 14.9568135,14.7047554 M10.3351814,15.9733982 C10.3351814,17.1770491 10.6353412,18.2910111 11.2351425,19.3155442 C11.835203,20.3403372 12.6459974,21.1535165 13.6675259,21.755082 C14.6893135,22.3571674 15.8000086,22.6579501 17.0001296,22.6579501 C18.1999914,22.6579501 19.3109457,22.3571674 20.3324741,21.755082 C21.3540026,21.1535165 22.1650562,20.3403372 22.7651167,19.3155442 C23.364918,18.2910111 23.6648186,17.1770491 23.6648186,15.9733982 C23.6648186,14.9649831 23.421684,13.972946 22.9354147,12.9970269 C22.6432902,12.3790835 22.0595596,11.4520383 21.1839638,10.2158915 C20.2433075,8.88225668 19.546045,7.80884965 19.0921763,6.99567039 C18.2813819,5.56454768 17.6486615,4.06817305 17.1947929,2.50680647 C17.162133,2.40931855 17.0973316,2.36044461 17.0001296,2.36044461 C16.9026684,2.36044461 16.837867,2.40931855 16.8054664,2.50680647 C16.3513385,4.03567708 15.7352073,5.51567373 14.9568135,6.94679644 C14.4705442,7.76023567 13.7569517,8.8336427 12.8162954,10.1670175 C11.9406996,11.4356604 11.3567098,12.3790835 11.0648445,12.9970269 C10.578316,14.005442 10.3351814,14.9974791 10.3351814,15.9733982 M17.0001296,25 C15.3785407,25 13.8704837,24.5931504 12.4756995,23.7799711 C11.0811745,22.9667919 9.98655012,21.8692078 9.1920856,20.4864391 C8.39736187,19.1041904 8,17.5997567 8,15.9733982 C8,14.6397634 8.27579454,13.3711206 8.8271244,12.1677297 C9.18405023,11.4195424 9.86498279,10.3297574 10.8704405,8.89863465 C11.778437,7.59749584 12.4432988,6.57270279 12.865026,5.82477544 C13.6110191,4.52363663 14.1784197,3.19000184 14.5677462,1.82387108 C14.7948101,1.04318779 15.2569733,0.506354291 15.9542358,0.213630554 C16.6514984,-0.0790931831 17.3487609,-0.0710341815 18.0460234,0.238067527 C18.7432859,0.547169235 19.2054491,1.07568376 19.432513,1.82387108 C19.8542402,3.22249781 20.4379707,4.58862858 21.1839638,5.92226336 C21.6054318,6.67045068 22.2702936,7.69498376 23.1782901,8.99612257 C24.1513471,10.3947493 24.8164682,11.4520383 25.1731348,12.1677297 C25.7244647,13.3711206 26,14.6397634 26,15.9733982 C26,17.5997567 25.6028973,19.1041904 24.8081736,20.4864391 C24.0137091,21.8692078 22.9188255,22.9667919 21.5243005,23.7799711 C20.1300347,24.5931504 18.6217185,25 17.0001296,25" id="Fill-1"></path>
                    <path d="M30.1488496,24.5116449 C30.3790024,24.5116449 30.5625025,24.4512957 30.7007855,24.3259551 C30.8393078,24.2031935 30.9495993,24.0417466 31.0338132,23.8439354 C31.118027,23.6443189 31.1759241,23.4186542 31.2077435,23.162557 C31.237649,22.906202 31.2527214,22.6462363 31.2527214,22.3818863 L31.2527214,17.8701405 C31.2527214,17.2914074 31.3331074,16.8013927 31.4941186,16.3957121 C31.6548905,15.9905473 31.8419793,15.655532 32.0572989,15.3914399 C32.2723793,15.1270899 32.4912875,14.9297945 32.7121097,14.7964589 C32.9348459,14.6651865 33.1142789,14.5826577 33.2528011,14.5483567 L33.2528011,14.4758861 C33.1142789,14.4596383 32.9348459,14.3930994 32.7121097,14.2760117 C32.4912875,14.1612451 32.2723793,13.9755553 32.0572989,13.7194582 C31.8419793,13.463361 31.6548905,13.1286036 31.4941186,12.715186 C31.3331074,12.3017683 31.2527214,11.7813211 31.2527214,11.1541023 L31.2527214,6.66866261 C31.2527214,6.38832262 31.237649,6.12010406 31.2077435,5.86194369 C31.1759241,5.60790976 31.118027,5.37579754 31.0338132,5.16818605 C30.9495993,4.96237988 30.8393078,4.7970644 30.7007855,4.67404492 C30.5625025,4.54896222 30.3790024,4.48835514 30.1488496,4.48835514 L29,4.48835514 L29,3 L30.6091551,3 C30.9010327,3 31.1907572,3.07066528 31.4826349,3.21173793 C31.7747518,3.35100526 32.0383987,3.55861675 32.2762072,3.83096175 C32.5137765,4.10330676 32.7082818,4.4419327 32.8616372,4.84735538 C33.0149926,5.25277806 33.0917899,5.71854992 33.0917899,6.24699207 L33.0917899,10.7569325 C33.0917899,11.2043933 33.1458591,11.6077528 33.2528011,11.9708794 C33.3592647,12.3360693 33.5016149,12.6445207 33.6793732,12.9006178 C33.8549783,13.156715 34.0571394,13.352463 34.2872922,13.4834774 C34.5174449,13.6165551 34.7550142,13.6810307 35,13.6810307 L35,15.367197 C34.7550142,15.367197 34.5174449,15.4378623 34.2872922,15.5768718 C34.0571394,15.7182023 33.8549783,15.9157556 33.6793732,16.1718527 C33.5016149,16.4279499 33.3592647,16.7348538 33.2528011,17.0897276 C33.1458591,17.4446014 33.0917899,17.8379027 33.0917899,18.2675682 L33.0917899,22.7530079 C33.0917899,23.2811922 33.0149926,23.7472219 32.8616372,24.1523867 C32.7082818,24.5580673 32.5137765,24.8966932 32.2762072,25.1690382 C32.0383987,25.4411254 31.7747518,25.6489947 31.4826349,25.7882621 C31.1907572,25.9293347 30.9010327,26 30.6091551,26 L29,26 L29,24.5116449 L30.1488496,24.5116449 Z" id="Fill-6"></path>
                    <path d="M4.85019339,4.48835514 C4.62027992,4.48835514 4.43677978,4.54870432 4.29825751,4.67378702 C4.16093146,4.79680649 4.04944376,4.95825344 3.96522987,5.15580673 C3.88101599,5.35568114 3.82311894,5.5813458 3.79321345,5.83744295 C3.76235097,6.09379801 3.7472786,6.35376369 3.7472786,6.61811372 L3.7472786,11.1541023 C3.7472786,11.7328355 3.66689262,12.2228502 3.50492444,12.6282728 C3.34415248,13.0336955 3.15706368,13.3684529 2.94174409,13.632803 C2.72762072,13.8968951 2.50871247,14.0947063 2.28717253,14.2277839 C2.06443638,14.3587984 1.88476415,14.4413272 1.74624188,14.4758861 L1.74624188,14.5483567 C1.88476415,14.5664099 2.06443638,14.6329487 2.28717253,14.7479732 C2.50871247,14.8629977 2.72762072,15.0484296 2.94174409,15.3045267 C3.15706368,15.5608818 3.34415248,15.8953813 3.50492444,16.3090569 C3.66689262,16.7227324 3.7472786,17.2429217 3.7472786,17.8701405 L3.7472786,22.3818863 C3.7472786,22.6297305 3.76235097,22.8798959 3.79321345,23.1359931 C3.82311894,23.3920902 3.88101599,23.6239446 3.96522987,23.831814 C4.04944376,24.0376201 4.16093146,24.2029356 4.29825751,24.3259551 C4.43677978,24.4510378 4.62027992,24.5116449 4.85019339,24.5116449 L6,24.5116449 L6,26 L4.39108417,26 C4.09896726,26 3.80828582,25.9293347 3.51712588,25.7882621 C3.22524822,25.6489947 2.96160134,25.4411254 2.72403206,25.1690382 C2.48646278,24.8966932 2.29076119,24.5578094 2.1374058,24.1523867 C1.9840504,23.7472219 1.90725308,23.2811922 1.90725308,22.75275 L1.90725308,18.2675682 C1.90725308,17.8195916 1.85390167,17.4162322 1.74624188,17.0533634 C1.6397783,16.6881735 1.49742813,16.3835907 1.3215838,16.1354885 C1.14478249,15.8873863 0.941903585,15.6980859 0.712707843,15.5647503 C0.482555126,15.433478 0.244985845,15.367197 0,15.367197 L0,13.6810307 C0.244985845,13.6810307 0.482555126,13.6124287 0.712707843,13.471356 C0.941903585,13.3302834 1.14478249,13.1324722 1.3215838,12.876375 C1.49742813,12.6202779 1.6397783,12.3097633 1.74624188,11.9466366 C1.85390167,11.5835099 1.90725308,11.1863401 1.90725308,10.7566746 L1.90725308,6.24699207 C1.90725308,5.71854992 1.9840504,5.25277806 2.1374058,4.84735538 C2.29076119,4.4419327 2.48646278,4.10304886 2.72403206,3.83096175 C2.96160134,3.55861675 3.22524822,3.35074736 3.51712588,3.21173793 C3.80828582,3.07040737 4.09896726,3 4.39108417,3 L6,3 L6,4.48835514 L4.85019339,4.48835514 Z" id="Fill-3"></path>
                </g>
                <path d="M43,6.06375081 L47.1307628,6.06375081 L49.2196144,13.675113 L51.2967309,6.06375081 L55.450964,6.06375081 L55.450964,23.4130084 L52.4702431,23.4130084 L52.4702431,9.51500968 L50.6160939,17.1031311 L47.8583403,17.1031311 L45.9807209,9.51500968 L45.9807209,23.4130084 L43,23.4130084 L43,6.06375081 Z M63.6890193,9.20125888 L62.0578374,16.3013234 L65.3319363,16.3013234 L63.6890193,9.20125888 Z M61.5766974,6.06375081 L65.8130763,6.06375081 L70.5423303,23.4130084 L67.0804694,23.4130084 L66.0008382,19.1250807 L61.3654652,19.1250807 L60.3093043,23.4130084 L56.8474434,23.4130084 L61.5766974,6.06375081 Z M76.9145013,15.8016462 C75.1698711,15.1431536 73.9885474,14.4517467 73.3704946,13.7274048 C72.7524417,13.0030629 72.4434199,12.0288957 72.4434199,10.8048741 C72.4434199,9.23223875 72.9519368,7.99661521 73.9689858,7.09796643 C74.9860347,6.19931765 76.3825002,5.75 78.1584241,5.75 C78.9642398,5.75 79.7700435,5.84102556 80.5758592,6.02307941 C81.3816749,6.20513325 82.1796552,6.4743365 82.969824,6.83069722 L82.969824,10.1773725 C82.2265959,9.65832536 81.471644,9.2632357 80.7049455,8.99209167 C79.9382471,8.72094764 79.1793835,8.58537766 78.4283319,8.58537766 C77.5912224,8.58537766 76.9497066,8.75193507 76.503772,9.08505487 C76.0578352,9.41817468 75.8348701,9.89460633 75.8348701,10.5143641 C75.8348701,10.9946764 75.9972043,11.3917028 76.3218776,11.7054551 C76.6465509,12.0192075 77.3252253,12.3658793 78.3579212,12.745481 L79.8482816,13.3032602 C81.2565033,13.8145603 82.2930953,14.4924102 82.9580889,15.3368302 C83.6230824,16.1812502 83.9555742,17.2464429 83.9555742,18.5324403 C83.9555742,20.283256 83.4333665,21.590538 82.3889355,22.4543254 C81.3445044,23.3181128 79.7661464,23.75 77.6538139,23.75 C76.7854106,23.75 75.9150644,23.6473542 75.0427494,23.4420594 C74.1704343,23.2367646 73.3274698,22.9327005 72.5138307,22.529858 L72.5138307,18.9856359 C73.4369982,19.6363816 74.3308143,20.1205601 75.195306,20.4381859 C76.0597976,20.7558118 76.914497,20.9146223 77.75943,20.9146223 C78.6121864,20.9146223 79.2732583,20.7228877 79.7426655,20.3394125 C80.2120728,19.9559374 80.4467728,19.4194676 80.4467728,18.7299871 C80.4467728,18.2109399 80.2903061,17.7558122 79.977368,17.3645901 C79.6644298,16.973368 79.2106763,16.6654304 78.6160939,16.4407682 L76.9145013,15.8016462 Z M90.210394,15.534377 L90.210394,20.6705939 L92.5104778,20.6705939 C93.6135847,20.6705939 94.3861392,20.4846694 94.8281643,20.1128147 C95.2701894,19.7409601 95.4911987,19.0940976 95.4911987,18.1722079 C95.4911987,17.2348242 95.2604102,16.5608478 94.7988265,16.1502582 C94.3372427,15.7396687 93.5744675,15.534377 92.5104778,15.534377 L90.210394,15.534377 Z M90.210394,8.77130407 L90.210394,12.803583 L92.5104778,12.803583 C93.3867046,12.803583 94.0106156,12.6486458 94.3822297,12.3387669 C94.7538437,12.0288881 94.9396479,11.5175956 94.9396479,10.8048741 C94.9396479,10.0921527 94.749932,9.57505003 94.3704946,9.25355068 C93.9910571,8.93205133 93.3710577,8.77130407 92.5104778,8.77130407 L90.210394,8.77130407 Z M86.8658843,6.04051001 L92.5104778,6.04051001 C94.4585177,6.04051001 95.9234374,6.40654895 96.9052808,7.13863783 C97.8871242,7.87072671 98.3780386,8.96497012 98.3780386,10.4214009 C98.3780386,11.5369649 98.0885751,12.4084862 97.5096396,13.035991 C96.930704,13.6634957 96.081872,14.0275979 94.9631182,14.1283086 C96.3009287,14.2600071 97.3081833,14.7054513 97.984912,15.4646546 C98.6616407,16.2238579 99,17.2851772 99,18.6486443 C99,20.3219903 98.4914832,21.5343733 97.4744342,22.2858296 C96.4573852,23.0372859 94.8027497,23.4130084 92.5104778,23.4130084 L86.8658843,23.4130084 L86.8658843,6.04051001 Z" id="MASB" fill-rule="nonzero"></path>
            </g>
        </g>
    </g>
</svg>